<svg width="530" height="604" viewBox="0 0 530 604" fill="none" xmlns="http://www.w3.org/2000/svg">
<path d="M290.205 468.522H227.949C228.112 453.874 229.251 441.26 231.367 430.68C233.646 419.938 237.471 410.254 242.842 401.628C248.376 393.001 255.7 384.456 264.814 375.993C272.464 369.157 279.137 362.647 284.834 356.462C290.531 350.277 295.007 343.929 298.262 337.419C301.517 330.746 303.145 323.34 303.145 315.202C303.145 305.762 301.68 297.949 298.75 291.764C295.983 285.417 291.751 280.615 286.055 277.36C280.521 274.105 273.522 272.477 265.059 272.477C258.06 272.477 251.549 274.024 245.527 277.116C239.505 280.046 234.541 284.603 230.635 290.788C226.891 296.973 224.938 305.111 224.775 315.202H153.975C154.463 292.904 159.59 274.512 169.355 260.026C179.284 245.378 192.549 234.554 209.15 227.555C225.752 220.394 244.388 216.813 265.059 216.813C287.845 216.813 307.376 220.557 323.652 228.044C339.928 235.368 352.38 246.191 361.006 260.514C369.632 274.675 373.945 291.927 373.945 312.272C373.945 326.432 371.178 339.046 365.645 350.114C360.111 361.019 352.868 371.191 343.916 380.632C334.964 390.072 325.117 399.837 314.375 409.928C305.098 418.229 298.75 426.937 295.332 436.052C292.077 445.166 290.368 455.99 290.205 468.522ZM220.625 543.962C220.625 533.545 224.206 524.919 231.367 518.083C238.529 511.084 248.132 507.585 260.176 507.585C272.057 507.585 281.579 511.084 288.74 518.083C296.064 524.919 299.727 533.545 299.727 543.962C299.727 554.053 296.064 562.598 288.74 569.596C281.579 576.595 272.057 580.094 260.176 580.094C248.132 580.094 238.529 576.595 231.367 569.596C224.206 562.598 220.625 554.053 220.625 543.962Z" fill="black"/>
<path d="M431.211 218.613L406.939 213.047C408.312 207.351 409.883 202.535 411.654 198.599C413.503 194.615 415.86 191.181 418.725 188.298C421.654 185.429 425.273 182.752 429.584 180.267C433.177 178.286 436.361 176.344 439.135 174.442C441.909 172.54 444.221 170.465 446.073 168.218C447.938 165.907 449.235 163.166 449.962 159.993C450.806 156.312 450.934 153.135 450.344 150.462C449.833 147.74 448.612 145.49 446.682 143.711C444.816 141.947 442.233 140.687 438.933 139.93C436.204 139.305 433.528 139.326 430.903 139.993C428.293 140.597 425.951 141.93 423.875 143.992C421.862 146.069 420.373 149.067 419.408 152.987L391.804 146.657C393.987 138.007 397.631 131.295 402.733 126.52C407.913 121.697 414.053 118.663 421.151 117.418C428.264 116.11 435.85 116.38 443.909 118.228C452.793 120.265 460.073 123.471 465.75 127.845C471.441 132.155 475.328 137.488 477.41 143.844C479.508 150.136 479.647 157.248 477.828 165.18C476.562 170.701 474.356 175.371 471.209 179.192C468.076 182.949 464.343 186.267 460.009 189.148C455.675 192.028 450.963 194.955 445.873 197.929C441.513 200.336 438.26 203.163 436.113 206.411C434.029 209.674 432.395 213.741 431.211 218.613ZM397.339 241.805C398.27 237.744 400.437 234.701 403.841 232.676C407.258 230.587 411.315 230.081 416.011 231.158C420.643 232.22 424.043 234.436 426.209 237.805C428.454 241.125 429.11 244.815 428.179 248.877C427.277 252.811 425.085 255.815 421.604 257.889C418.186 259.977 414.161 260.49 409.529 259.428C404.833 258.352 401.402 256.129 399.235 252.76C397.069 249.391 396.437 245.739 397.339 241.805Z" fill="#DEC9E9"/>
<path d="M324.477 117.225L301.403 126.59C299.26 121.136 297.784 116.29 296.977 112.05C296.206 107.726 296.166 103.561 296.859 99.5563C297.613 95.5266 299.042 91.2578 301.147 86.7498C302.954 83.0653 304.448 79.6485 305.629 76.4992C306.81 73.3499 307.514 70.3239 307.741 67.4212C307.943 64.4582 307.433 61.4686 306.208 58.4524C304.788 54.9536 303.07 52.2784 301.054 50.4267C299.073 48.4903 296.783 47.3473 294.182 46.9978C291.641 46.6238 288.802 47.0734 285.665 48.3466C283.071 49.3994 280.891 50.9519 279.124 53.004C277.333 54.9958 276.178 57.4316 275.661 60.3116C275.204 63.1671 275.704 66.4771 277.162 70.2417L250.921 80.8926C247.747 72.5546 246.881 64.9667 248.321 58.1287C249.797 51.2059 253.086 45.1989 258.186 40.1075C263.262 34.9558 269.63 30.8251 277.291 27.7156C285.737 24.2877 293.539 22.7371 300.698 23.0635C307.832 23.3297 314.075 25.4682 319.427 29.4791C324.754 33.4296 328.948 39.1752 332.009 46.7157C334.139 51.964 335.011 57.0554 334.625 61.9899C334.214 66.8641 333.06 71.724 331.162 76.5695C329.265 81.415 327.084 86.5158 324.621 91.8719C322.431 96.344 321.388 100.526 321.493 104.419C321.657 108.287 322.652 112.555 324.477 117.225ZM310.037 155.652C308.47 151.792 308.499 148.056 310.125 144.445C311.727 140.773 314.759 138.032 319.223 136.22C323.627 134.433 327.683 134.297 331.39 135.814C335.133 137.246 337.788 139.892 339.355 143.753C340.873 147.493 340.801 151.211 339.139 154.907C337.538 158.578 334.535 161.307 330.131 163.095C325.667 164.906 321.582 165.054 317.875 163.537C314.168 162.021 311.555 159.392 310.037 155.652Z" fill="#6247AA"/>
<path d="M166.047 433.39L142.973 442.755C140.83 437.301 139.355 432.455 138.547 428.215C137.776 423.891 137.737 419.726 138.43 415.721C139.183 411.692 140.612 407.423 142.717 402.915C144.524 399.23 146.018 395.813 147.199 392.664C148.38 389.515 149.084 386.489 149.311 383.586C149.514 380.623 149.003 377.634 147.779 374.617C146.359 371.118 144.64 368.443 142.624 366.592C140.644 364.655 138.353 363.512 135.752 363.163C133.211 362.789 130.372 363.238 127.235 364.512C124.642 365.564 122.461 367.117 120.694 369.169C118.903 371.161 117.749 373.597 117.231 376.477C116.774 379.332 117.275 382.642 118.732 386.407L92.4912 397.057C89.3177 388.72 88.4512 381.132 89.8915 374.294C91.3677 367.371 94.6559 361.364 99.7562 356.272C104.832 351.121 111.201 346.99 118.862 343.881C127.307 340.453 135.109 338.902 142.268 339.228C149.402 339.495 155.645 341.633 160.997 345.644C166.325 349.595 170.519 355.34 173.579 362.881C175.709 368.129 176.581 373.22 176.195 378.155C175.785 383.029 174.631 387.889 172.733 392.734C170.835 397.58 168.654 402.681 166.191 408.037C164.001 412.509 162.959 416.691 163.063 420.584C163.228 424.451 164.222 428.72 166.047 433.39ZM151.607 471.817C150.04 467.956 150.07 464.221 151.696 460.61C153.297 456.938 156.33 454.197 160.794 452.385C165.197 450.598 169.253 450.462 172.96 451.979C176.703 453.411 179.358 456.057 180.925 459.918C182.443 463.658 182.371 467.376 180.709 471.072C179.108 474.743 176.105 477.472 171.702 479.26C167.238 481.071 163.152 481.219 159.445 479.702C155.738 478.186 153.125 475.557 151.607 471.817Z" fill="#DAC3E8"/>
<path d="M176.617 146.842L164.526 149.818C163.858 146.966 163.476 144.462 163.381 142.306C163.31 140.111 163.59 138.047 164.221 136.115C164.883 134.175 165.897 132.166 167.262 130.087C168.421 128.393 169.406 126.81 170.216 125.336C171.027 123.863 171.593 122.416 171.914 120.996C172.227 119.545 172.189 118.029 171.8 116.448C171.348 114.615 170.69 113.168 169.826 112.107C168.985 111.006 167.934 110.276 166.672 109.916C165.441 109.549 164.004 109.567 162.361 109.972C161.002 110.306 159.811 110.918 158.79 111.806C157.76 112.663 157.014 113.786 156.551 115.173C156.12 116.554 156.129 118.227 156.58 120.195L142.831 123.58C141.859 119.226 141.976 115.409 143.18 112.129C144.408 108.81 146.466 106.074 149.356 103.921C152.237 101.736 155.685 100.15 159.7 99.1618C164.125 98.0724 168.097 97.8657 171.616 98.5416C175.127 99.1859 178.062 100.693 180.422 103.062C182.774 105.399 184.437 108.544 185.409 112.495C186.086 115.245 186.152 117.826 185.606 120.24C185.053 122.623 184.133 124.945 182.846 127.206C181.558 129.467 180.113 131.834 178.509 134.308C177.104 136.363 176.288 138.358 176.06 140.291C175.863 142.217 176.049 144.4 176.617 146.842ZM166.71 164.819C166.212 162.796 166.495 160.95 167.559 159.28C168.616 157.578 170.313 156.439 172.652 155.864C174.96 155.296 176.976 155.52 178.701 156.537C180.451 157.514 181.574 159.014 182.072 161.037C182.555 162.997 182.252 164.832 181.164 166.541C180.108 168.242 178.426 169.377 176.119 169.945C173.78 170.521 171.747 170.301 170.022 169.284C168.297 168.267 167.193 166.779 166.71 164.819Z" fill="#B185DB"/>
<path d="M430.083 348.646L421.462 339.662C423.599 337.657 425.577 336.074 427.397 334.915C429.262 333.756 431.189 332.967 433.178 332.547C435.189 332.151 437.437 332.025 439.92 332.168C441.966 332.326 443.829 332.387 445.511 332.353C447.192 332.318 448.728 332.085 450.118 331.654C451.532 331.199 452.826 330.409 454 329.282C455.363 327.975 456.287 326.681 456.774 325.402C457.307 324.124 457.414 322.848 457.095 321.575C456.798 320.326 456.064 319.091 454.892 317.869C453.923 316.859 452.798 316.134 451.518 315.693C450.261 315.23 448.916 315.145 447.483 315.437C446.072 315.754 444.627 316.599 443.148 317.972L433.344 307.755C436.63 304.738 439.994 302.931 443.436 302.335C446.925 301.739 450.324 302.154 453.633 303.581C456.965 304.985 460.062 307.178 462.925 310.161C466.08 313.45 468.244 316.786 469.418 320.172C470.615 323.535 470.777 326.831 469.905 330.059C469.056 333.264 467.163 336.276 464.227 339.093C462.184 341.054 459.98 342.401 457.617 343.135C455.277 343.847 452.806 344.21 450.204 344.226C447.602 344.241 444.83 344.172 441.886 344.02C439.403 343.83 437.268 344.12 435.479 344.889C433.713 345.681 431.914 346.934 430.083 348.646ZM409.562 349.051C411.065 347.609 412.806 346.931 414.784 347.018C416.785 347.082 418.62 347.983 420.288 349.721C421.933 351.436 422.747 353.294 422.729 355.297C422.756 357.301 422.019 359.024 420.515 360.466C419.059 361.863 417.319 362.518 415.295 362.43C413.293 362.366 411.47 361.477 409.824 359.762C408.156 358.024 407.332 356.154 407.35 354.151C407.368 352.148 408.106 350.448 409.562 349.051Z" fill="#815AC0"/>
<path d="M234.431 158.168L239.822 155.055C240.541 156.331 241.073 157.481 241.418 158.503C241.758 159.547 241.911 160.577 241.877 161.593C241.829 162.616 241.622 163.723 241.256 164.911C240.936 165.886 240.683 166.783 240.499 167.604C240.315 168.424 240.245 169.198 240.288 169.924C240.34 170.665 240.569 171.388 240.976 172.092C241.448 172.91 241.966 173.513 242.529 173.902C243.086 174.314 243.692 174.518 244.348 174.515C244.99 174.52 245.678 174.311 246.411 173.888C247.017 173.538 247.503 173.079 247.87 172.51C248.245 171.955 248.447 171.312 248.477 170.581C248.491 169.858 248.254 169.056 247.763 168.174L253.895 164.634C254.967 166.589 255.443 168.439 255.322 170.181C255.194 171.946 254.587 173.547 253.499 174.983C252.419 176.433 250.984 177.675 249.194 178.709C247.221 179.848 245.342 180.501 243.558 180.666C241.782 180.845 240.163 180.531 238.7 179.722C237.245 178.927 236.008 177.648 234.991 175.886C234.283 174.66 233.892 173.429 233.818 172.194C233.752 170.973 233.871 169.73 234.174 168.465C234.477 167.2 234.842 165.861 235.267 164.45C235.656 163.268 235.77 162.196 235.61 161.236C235.437 160.284 235.043 159.261 234.431 158.168ZM236.685 148.155C237.206 149.057 237.327 149.983 237.048 150.934C236.778 151.898 236.121 152.681 235.078 153.283C234.049 153.877 233.05 154.05 232.08 153.802C231.104 153.576 230.355 153.012 229.834 152.11C229.33 151.236 229.22 150.313 229.504 149.341C229.774 148.377 230.424 147.598 231.453 147.004C232.496 146.401 233.503 146.224 234.473 146.472C235.443 146.72 236.18 147.281 236.685 148.155Z" fill="#DEC9E9"/>
<path d="M348.431 444.168L353.822 441.055C354.541 442.331 355.073 443.481 355.418 444.503C355.758 445.547 355.911 446.577 355.877 447.593C355.829 448.616 355.622 449.723 355.256 450.911C354.936 451.886 354.683 452.783 354.499 453.604C354.315 454.424 354.245 455.198 354.288 455.924C354.34 456.665 354.569 457.388 354.976 458.092C355.448 458.91 355.966 459.513 356.529 459.902C357.086 460.314 357.692 460.518 358.348 460.515C358.99 460.52 359.678 460.311 360.411 459.888C361.017 459.538 361.503 459.079 361.87 458.51C362.245 457.955 362.447 457.312 362.477 456.581C362.491 455.858 362.254 455.056 361.763 454.174L367.895 450.634C368.967 452.589 369.443 454.439 369.322 456.181C369.194 457.946 368.587 459.547 367.499 460.983C366.419 462.433 364.984 463.675 363.194 464.709C361.221 465.848 359.342 466.501 357.558 466.666C355.782 466.845 354.163 466.531 352.7 465.722C351.245 464.927 350.008 463.648 348.991 461.886C348.283 460.66 347.892 459.429 347.818 458.194C347.752 456.973 347.871 455.73 348.174 454.465C348.477 453.2 348.842 451.861 349.267 450.45C349.656 449.268 349.77 448.196 349.61 447.236C349.437 446.284 349.043 445.261 348.431 444.168ZM350.685 434.155C351.206 435.057 351.327 435.983 351.048 436.934C350.778 437.898 350.121 438.681 349.078 439.283C348.049 439.877 347.05 440.05 346.08 439.802C345.104 439.576 344.355 439.012 343.834 438.11C343.33 437.236 343.22 436.313 343.504 435.341C343.774 434.377 344.424 433.598 345.453 433.004C346.496 432.401 347.503 432.224 348.473 432.472C349.443 432.72 350.18 433.281 350.685 434.155Z" fill="#A06CD5"/>
<path d="M141.65 240.872L135.968 243.415C135.384 242.071 134.973 240.873 134.734 239.821C134.503 238.748 134.457 237.707 134.594 236.701C134.747 235.687 135.067 234.608 135.553 233.463C135.972 232.527 136.315 231.66 136.583 230.863C136.85 230.066 136.999 229.303 137.03 228.576C137.055 227.834 136.901 227.092 136.569 226.349C136.183 225.487 135.73 224.834 135.21 224.389C134.698 223.923 134.116 223.657 133.463 223.593C132.825 223.522 132.12 223.659 131.347 224.005C130.708 224.291 130.177 224.698 129.754 225.226C129.324 225.739 129.057 226.358 128.953 227.082C128.864 227.8 129.018 228.622 129.415 229.55L122.953 232.442C122.087 230.387 121.803 228.498 122.103 226.777C122.411 225.035 123.18 223.505 124.409 222.188C125.632 220.856 127.187 219.768 129.073 218.924C131.153 217.993 133.089 217.537 134.88 217.556C136.665 217.559 138.244 218.039 139.616 218.994C140.982 219.934 142.08 221.332 142.911 223.189C143.49 224.482 143.752 225.746 143.699 226.983C143.64 228.204 143.394 229.428 142.963 230.656C142.531 231.883 142.031 233.177 141.463 234.536C140.955 235.673 140.731 236.727 140.792 237.699C140.867 238.664 141.153 239.721 141.65 240.872ZM138.38 250.6C137.955 249.649 137.929 248.716 138.304 247.799C138.672 246.868 139.405 246.156 140.505 245.664C141.589 245.179 142.601 245.109 143.541 245.456C144.489 245.78 145.175 246.418 145.601 247.369C146.013 248.29 146.028 249.22 145.645 250.158C145.277 251.089 144.551 251.797 143.466 252.283C142.367 252.775 141.348 252.847 140.408 252.501C139.468 252.155 138.793 251.521 138.38 250.6Z" fill="#A06CD5"/>
<path d="M65.7757 249.464L53.7504 246.235C54.5416 243.414 55.4158 241.037 56.3732 239.103C57.3704 237.146 58.6115 235.474 60.0964 234.086C61.6126 232.707 63.4705 231.436 65.67 230.274C67.5022 229.351 69.1288 228.439 70.5499 227.54C71.971 226.641 73.1648 225.647 74.1312 224.558C75.1061 223.438 75.8045 222.092 76.2266 220.52C76.7162 218.696 76.8384 217.111 76.5933 215.765C76.388 214.395 75.8196 213.248 74.8881 212.324C73.988 211.408 72.7206 210.731 71.0858 210.292C69.7339 209.929 68.3962 209.89 67.0726 210.175C65.7574 210.429 64.5622 211.051 63.4869 212.044C62.443 213.044 61.6437 214.515 61.0889 216.455L47.4131 212.784C48.6639 208.502 50.608 205.215 53.2456 202.924C55.9231 200.609 59.0466 199.206 62.6164 198.715C66.1945 198.193 69.9799 198.468 73.9726 199.54C78.374 200.722 81.9525 202.458 84.7081 204.748C87.4721 207.007 89.3158 209.743 90.2392 212.957C91.1711 216.14 91.1095 219.696 90.0543 223.626C89.3199 226.361 88.1313 228.654 86.4884 230.505C84.8539 232.324 82.9273 233.914 80.7086 235.273C78.4899 236.632 76.0814 238.007 73.4831 239.4C71.2606 240.522 69.5829 241.875 68.45 243.458C67.3485 245.05 66.4571 247.052 65.7757 249.464ZM48.4232 260.427C48.9635 258.415 50.1025 256.935 51.8403 255.986C53.5866 255.005 55.6229 254.827 57.9494 255.452C60.2444 256.068 61.9021 257.238 62.9224 258.961C63.9826 260.661 64.2426 262.517 63.7024 264.53C63.179 266.479 62.0285 267.939 60.2508 268.911C58.5045 269.892 56.4839 270.074 54.1889 269.458C51.8624 268.833 50.189 267.659 49.1687 265.936C48.1484 264.213 47.8999 262.376 48.4232 260.427Z" fill="#6247AA"/>
</svg>
