<svg width="430" height="917" viewBox="0 0 430 917" fill="none" xmlns="http://www.w3.org/2000/svg">
<path d="M375.211 121.448L350.938 115.882C352.311 110.186 353.883 105.37 355.654 101.434C357.503 97.4497 359.86 94.0159 362.725 91.1329C365.654 88.2643 369.273 85.5876 373.583 83.1026C377.177 81.1213 380.361 79.1796 383.135 77.2775C385.909 75.3754 388.221 73.3007 390.072 71.0534C391.938 68.7426 393.235 66.0008 393.962 62.828C394.806 59.1474 394.933 55.9705 394.344 53.2972C393.833 50.575 392.612 48.3247 390.682 46.5463C388.816 44.7825 386.232 43.5222 382.933 42.7656C380.204 42.1399 377.527 42.1608 374.903 42.8281C372.293 43.4319 369.95 44.765 367.874 46.8271C365.862 48.9038 364.373 51.9021 363.407 55.8219L335.803 49.4925C337.987 40.8424 341.63 34.1301 346.733 29.3554C351.913 24.5318 358.053 21.4978 365.151 20.2533C372.264 18.9453 379.85 19.2153 387.909 21.0632C396.793 23.1002 404.073 26.3058 409.75 30.6799C415.44 34.9905 419.327 40.3236 421.41 46.679C423.508 52.9709 423.647 60.083 421.828 68.0152C420.562 73.536 418.356 78.2066 415.209 82.0269C412.076 85.7839 408.343 89.1025 404.009 91.9827C399.675 94.863 394.963 97.7901 389.872 100.764C385.513 103.171 382.26 105.999 380.112 109.247C378.028 112.509 376.395 116.576 375.211 121.448ZM341.339 144.64C342.27 140.579 344.437 137.536 347.84 135.511C351.258 133.422 355.315 132.916 360.011 133.993C364.643 135.055 368.043 137.271 370.209 140.64C372.453 143.96 373.11 147.65 372.179 151.712C371.277 155.646 369.085 158.65 365.604 160.724C362.186 162.813 358.161 163.326 353.528 162.263C348.833 161.187 345.401 158.964 343.235 155.595C341.069 152.226 340.436 148.575 341.339 144.64Z" fill="#DEC9E9"/>
<path d="M37.6166 268.677L25.5263 271.654C24.8577 268.801 24.4759 266.297 24.381 264.141C24.31 261.946 24.5898 259.883 25.2205 257.95C25.8828 256.011 26.8967 254.001 28.2621 251.922C29.4209 250.228 30.4056 248.645 31.2163 247.172C32.0269 245.698 32.5926 244.251 32.9136 242.832C33.2267 241.38 33.1888 239.864 32.7997 238.284C32.3484 236.45 31.6905 235.003 30.8258 233.942C29.985 232.842 28.9337 232.111 27.6717 231.752C26.4414 231.384 25.0045 231.402 23.3608 231.807C22.0017 232.142 20.8112 232.753 19.7896 233.642C18.7601 234.498 18.0139 235.621 17.551 237.009C17.1197 238.389 17.1294 240.063 17.5802 242.03L3.83057 245.415C2.8594 241.061 2.97581 237.244 4.17981 233.964C5.40763 230.645 7.46628 227.909 10.3558 225.756C13.2375 223.571 16.6854 221.985 20.6997 220.997C25.1249 219.908 29.0969 219.701 32.6156 220.377C36.1266 221.021 39.0621 222.528 41.4221 224.897C43.7743 227.234 45.4367 230.379 46.4093 234.33C47.0863 237.08 47.152 239.662 46.6064 242.076C46.053 244.458 45.1328 246.78 43.8456 249.041C42.5584 251.302 41.113 253.669 39.5093 256.143C38.1044 258.198 37.288 260.193 37.0599 262.126C36.8635 264.052 37.049 266.236 37.6166 268.677ZM27.7105 286.654C27.2125 284.631 27.4955 282.785 28.5594 281.115C29.6156 279.413 31.3132 278.275 33.6523 277.699C35.9597 277.131 37.9761 277.355 39.7014 278.372C41.4506 279.349 42.5742 280.85 43.0722 282.873C43.5546 284.832 43.2519 286.667 42.1641 288.376C41.1079 290.078 39.4261 291.212 37.1187 291.78C34.7797 292.356 32.7475 292.136 31.0221 291.119C29.2968 290.102 28.1929 288.614 27.7105 286.654Z" fill="#B185DB"/>
<path d="M157.431 218.003L162.822 214.89C163.541 216.167 164.073 217.316 164.418 218.338C164.758 219.382 164.911 220.412 164.877 221.428C164.829 222.451 164.622 223.558 164.256 224.746C163.936 225.721 163.683 226.618 163.499 227.439C163.315 228.259 163.245 229.033 163.288 229.759C163.34 230.5 163.569 231.223 163.976 231.928C164.448 232.745 164.966 233.348 165.529 233.738C166.086 234.149 166.692 234.353 167.348 234.35C167.99 234.355 168.678 234.146 169.411 233.723C170.017 233.373 170.503 232.914 170.87 232.345C171.245 231.79 171.447 231.147 171.477 230.416C171.491 229.694 171.254 228.891 170.763 228.009L176.895 224.469C177.967 226.425 178.443 228.274 178.322 230.016C178.194 231.781 177.587 233.382 176.499 234.818C175.419 236.269 173.984 237.51 172.194 238.544C170.221 239.683 168.342 240.336 166.558 240.501C164.782 240.681 163.163 240.366 161.7 239.557C160.245 238.762 159.008 237.483 157.991 235.721C157.283 234.495 156.892 233.264 156.818 232.029C156.752 230.808 156.871 229.565 157.174 228.3C157.477 227.035 157.842 225.697 158.267 224.285C158.656 223.103 158.77 222.031 158.61 221.071C158.437 220.119 158.043 219.096 157.431 218.003ZM159.685 207.99C160.206 208.892 160.327 209.819 160.048 210.769C159.778 211.733 159.121 212.516 158.078 213.118C157.049 213.712 156.05 213.885 155.08 213.637C154.104 213.412 153.355 212.848 152.834 211.945C152.33 211.072 152.22 210.148 152.504 209.176C152.774 208.212 153.424 207.433 154.453 206.839C155.496 206.237 156.503 206.059 157.473 206.307C158.443 206.555 159.18 207.116 159.685 207.99Z" fill="#DEC9E9"/>
<path d="M83.0473 839.225L59.9732 848.59C57.8299 843.136 56.3546 838.29 55.5473 834.05C54.7759 829.726 54.7367 825.561 55.4297 821.556C56.1831 817.527 57.6122 813.258 59.7172 808.75C61.5241 805.065 63.018 801.648 64.199 798.499C65.3799 795.35 66.0839 792.324 66.311 789.421C66.5137 786.458 66.0029 783.469 64.7786 780.452C63.3585 776.954 61.6403 774.278 59.6241 772.427C57.6437 770.49 55.3529 769.347 52.7519 768.998C50.2111 768.624 47.3723 769.073 44.2355 770.347C41.6415 771.399 39.4611 772.952 37.6943 775.004C35.903 776.996 34.7487 779.432 34.2313 782.312C33.7743 785.167 34.2746 788.477 35.7323 792.242L9.49115 802.893C6.31773 794.555 5.45119 786.967 6.89154 780.129C8.36772 773.206 11.6559 767.199 16.7562 762.107C21.832 756.956 28.2005 752.825 35.8617 749.716C44.3072 746.288 52.1093 744.737 59.268 745.064C66.4023 745.33 72.6453 747.468 77.9972 751.479C83.3246 755.43 87.5185 761.175 90.5791 768.716C92.7093 773.964 93.5813 779.055 93.1952 783.99C92.7847 788.864 91.6305 793.724 89.7328 798.569C87.835 803.415 85.6545 808.516 83.1911 813.872C81.0013 818.344 79.9586 822.526 80.0629 826.419C80.2275 830.287 81.2224 834.555 83.0473 839.225ZM68.6072 877.652C67.0402 873.792 67.0696 870.056 68.6956 866.445C70.297 862.773 73.3297 860.032 77.7938 858.22C82.1975 856.433 86.2529 856.297 89.96 857.814C93.703 859.246 96.3579 861.892 97.925 865.753C99.443 869.493 99.3711 873.211 97.7094 876.907C96.1079 880.578 93.1054 883.307 88.7017 885.095C84.2376 886.906 80.1521 887.054 76.445 885.537C72.7378 884.021 70.1253 881.392 68.6072 877.652Z" fill="#6247AA" opacity=".5"/> <!-- this -->
<path d="M221.776 599.299L209.75 596.07C210.541 593.249 211.416 590.872 212.373 588.938C213.37 586.981 214.611 585.309 216.096 583.922C217.613 582.542 219.47 581.272 221.67 580.109C223.502 579.186 225.129 578.274 226.55 577.375C227.971 576.476 229.165 575.482 230.131 574.393C231.106 573.273 231.804 571.927 232.226 570.355C232.716 568.532 232.838 566.947 232.593 565.6C232.388 564.23 231.82 563.083 230.888 562.159C229.988 561.244 228.72 560.566 227.086 560.127C225.734 559.764 224.396 559.725 223.072 560.01C221.757 560.264 220.562 560.887 219.487 561.879C218.443 562.879 217.644 564.35 217.089 566.291L203.413 562.619C204.664 558.337 206.608 555.05 209.245 552.759C211.923 550.444 215.047 549.041 218.616 548.551C222.194 548.028 225.98 548.303 229.973 549.375C234.374 550.557 237.952 552.293 240.708 554.583C243.472 556.842 245.316 559.579 246.239 562.793C247.171 565.975 247.109 569.531 246.054 573.461C245.32 576.196 244.131 578.489 242.488 580.34C240.854 582.159 238.927 583.749 236.709 585.108C234.49 586.467 232.081 587.843 229.483 589.235C227.261 590.357 225.583 591.71 224.45 593.293C223.348 594.885 222.457 596.887 221.776 599.299ZM204.423 610.262C204.963 608.25 206.102 606.77 207.84 605.821C209.586 604.84 211.623 604.662 213.949 605.287C216.244 605.903 217.902 607.073 218.922 608.796C219.982 610.497 220.242 612.353 219.702 614.365C219.179 616.314 218.028 617.775 216.251 618.747C214.504 619.727 212.484 619.909 210.189 619.293C207.862 618.668 206.189 617.494 205.169 615.771C204.148 614.048 203.9 612.212 204.423 610.262Z" fill="#6247AA"/>
<path d="M324.182 790.089L315.561 781.105C317.697 779.1 319.675 777.518 321.495 776.358C323.361 775.199 325.288 774.41 327.276 773.991C329.288 773.595 331.535 773.468 334.018 773.612C336.064 773.769 337.928 773.831 339.609 773.796C341.291 773.762 342.826 773.529 344.217 773.097C345.63 772.643 346.924 771.852 348.099 770.725C349.461 769.418 350.386 768.125 350.872 766.845C351.405 765.567 351.512 764.292 351.193 763.019C350.897 761.769 350.162 760.534 348.99 759.313C348.021 758.303 346.897 757.577 345.616 757.137C344.36 756.673 343.015 756.588 341.581 756.881C340.17 757.197 338.725 758.042 337.247 759.416L327.443 749.199C330.728 746.181 334.092 744.375 337.535 743.778C341.023 743.182 344.422 743.598 347.731 745.024C351.063 746.428 354.161 748.622 357.023 751.605C360.178 754.893 362.343 758.23 363.516 761.615C364.713 764.978 364.875 768.274 364.003 771.502C363.154 774.708 361.262 777.719 358.326 780.537C356.282 782.497 354.079 783.845 351.715 784.579C349.375 785.29 346.905 785.654 344.303 785.669C341.701 785.685 338.928 785.616 335.984 785.463C333.502 785.274 331.366 785.563 329.577 786.332C327.811 787.125 326.013 788.377 324.182 790.089ZM303.66 790.494C305.163 789.052 306.904 788.374 308.882 788.461C310.884 788.525 312.719 789.427 314.386 791.165C316.032 792.879 316.845 794.738 316.827 796.74C316.855 798.744 316.117 800.467 314.614 801.909C313.157 803.307 311.417 803.962 309.393 803.874C307.391 803.809 305.568 802.92 303.923 801.205C302.255 799.467 301.43 797.597 301.448 795.594C301.467 793.592 302.204 791.892 303.66 790.494Z" fill="#815AC0" opacity=".5"/> <!-- this-->
<path d="M380.431 417.003L385.822 413.89C386.541 415.167 387.073 416.316 387.418 417.338C387.758 418.382 387.911 419.412 387.877 420.428C387.829 421.451 387.622 422.558 387.256 423.746C386.936 424.721 386.683 425.618 386.499 426.439C386.315 427.259 386.245 428.033 386.288 428.759C386.34 429.5 386.569 430.223 386.976 430.928C387.448 431.745 387.966 432.348 388.529 432.738C389.086 433.149 389.692 433.353 390.348 433.35C390.99 433.355 391.678 433.146 392.411 432.723C393.017 432.373 393.503 431.914 393.87 431.345C394.245 430.79 394.447 430.147 394.477 429.416C394.491 428.694 394.254 427.891 393.763 427.009L399.895 423.469C400.967 425.425 401.443 427.274 401.322 429.016C401.194 430.781 400.587 432.382 399.499 433.818C398.419 435.269 396.984 436.51 395.194 437.544C393.221 438.683 391.342 439.336 389.558 439.501C387.782 439.681 386.163 439.366 384.7 438.557C383.245 437.762 382.008 436.483 380.991 434.721C380.283 433.495 379.892 432.264 379.818 431.029C379.752 429.808 379.871 428.565 380.174 427.3C380.477 426.035 380.842 424.697 381.267 423.285C381.656 422.103 381.77 421.031 381.61 420.071C381.437 419.119 381.043 418.096 380.431 417.003ZM382.685 406.99C383.206 407.892 383.327 408.819 383.048 409.769C382.778 410.733 382.121 411.516 381.078 412.118C380.049 412.712 379.05 412.885 378.08 412.637C377.104 412.412 376.355 411.848 375.834 410.945C375.33 410.072 375.22 409.148 375.504 408.176C375.774 407.212 376.424 406.433 377.453 405.839C378.496 405.237 379.503 405.059 380.473 405.307C381.443 405.555 382.18 406.116 382.685 406.99Z" fill="#A06CD5"/>
<path d="M16.3345 70.7897L11.3527 67.0561C12.2442 65.8937 13.0919 64.9527 13.8957 64.233C14.7222 63.51 15.6091 62.9645 16.5562 62.5963C17.5164 62.2379 18.6149 61.9934 19.8519 61.8627C20.874 61.7745 21.7984 61.6537 22.6252 61.5004C23.4519 61.3471 24.1908 61.1076 24.8417 60.7819C25.5024 60.4431 26.0768 59.9481 26.5648 59.2969C27.131 58.5415 27.4823 57.8285 27.6188 57.1579C27.778 56.484 27.7274 55.846 27.4667 55.2438C27.2191 54.6515 26.7567 54.1015 26.0794 53.5939C25.5194 53.1742 24.9057 52.9075 24.2383 52.7938C23.5807 52.6671 22.9102 52.734 22.2267 52.9947C21.5562 53.2651 20.9119 53.7992 20.2936 54.5969L14.6281 50.3509C16.0044 48.5958 17.5177 47.4316 19.1679 46.8581C20.8409 46.2813 22.5515 46.2107 24.2997 46.6463C26.0576 47.0689 27.7636 47.9 29.4177 49.1396C31.2411 50.5062 32.5795 51.9771 33.4329 53.5523C34.2961 55.1145 34.6434 56.7273 34.4747 58.3908C34.3157 60.0413 33.6262 61.6805 32.4061 63.3085C31.5569 64.4416 30.579 65.2851 29.4724 65.8388C28.3756 66.3796 27.1859 66.7592 25.9035 66.9778C24.621 67.1963 23.2473 67.3873 21.7826 67.5505C20.5424 67.6584 19.5122 67.9745 18.6921 68.4989C17.885 69.033 17.0991 69.7966 16.3345 70.7897ZM6.24235 72.6536C6.86706 71.8201 7.67093 71.3445 8.65396 71.227C9.64675 71.0964 10.625 71.3923 11.5888 72.1146C12.5396 72.8272 13.0917 73.6782 13.245 74.6678C13.4211 75.654 13.1968 76.564 12.5721 77.3975C11.967 78.205 11.1614 78.6692 10.1556 78.79C9.16284 78.9205 8.19106 78.6295 7.24029 77.9169C6.27649 77.1946 5.71792 76.3387 5.56458 75.3492C5.41124 74.3596 5.63716 73.4611 6.24235 72.6536Z" fill="#A06CD5"/>
</svg>
